<svg width="512" height="512" viewBox="0 0 512 512" fill="none" xmlns="http://www.w3.org/2000/svg">
<rect width="512" height="512" fill="url(#paint0_radial)"/>
<path fill-rule="evenodd" clip-rule="evenodd" d="M256.285 110C216.55 110 211.577 110.183 195.979 110.878C180.4 111.609 169.794 114.059 160.468 117.68C150.85 121.41 142.676 126.42 134.558 134.558C126.42 142.676 121.392 150.832 117.68 160.468C114.059 169.794 111.591 180.4 110.878 195.979C110.146 211.577 110 216.55 110 256.285C110 296.02 110.183 300.993 110.878 316.591C111.609 332.17 114.059 342.794 117.68 352.102C121.41 361.72 126.42 369.894 134.558 378.012C142.676 386.15 150.832 391.178 160.468 394.89C169.794 398.511 180.4 400.979 195.979 401.692C211.577 402.424 216.55 402.57 256.285 402.57C296.02 402.57 300.993 402.387 316.591 401.692C332.17 400.961 342.794 398.511 352.102 394.89C361.72 391.16 369.894 386.15 378.012 378.012C386.15 369.894 391.178 361.738 394.89 352.102C398.511 342.776 400.979 332.17 401.692 316.591C402.424 300.993 402.57 296.02 402.57 256.285C402.57 216.55 402.387 211.577 401.692 195.979C400.961 180.4 398.511 169.776 394.89 160.468C391.16 150.85 386.15 142.676 378.012 134.558C369.894 126.42 361.738 121.392 352.102 117.68C342.776 114.059 332.17 111.591 316.591 110.878C300.993 110.146 296.02 110 256.285 110ZM256.286 136.332C295.344 136.332 299.988 136.515 315.403 137.21C329.666 137.868 337.401 140.245 342.557 142.256C349.396 144.908 354.26 148.071 359.38 153.191C364.5 158.311 367.663 163.175 370.315 170.014C372.326 175.17 374.703 182.905 375.362 197.168C376.056 212.601 376.221 217.227 376.221 256.286C376.221 295.344 376.038 299.988 375.307 315.403C374.575 329.666 372.198 337.401 370.187 342.557C367.444 349.396 364.335 354.26 359.215 359.38C354.095 364.5 349.158 367.663 342.393 370.315C337.273 372.326 329.41 374.703 315.147 375.361C299.604 376.056 295.033 376.221 255.902 376.221C216.77 376.221 212.199 376.038 196.656 375.307C182.393 374.575 174.531 372.198 169.411 370.187C162.462 367.444 157.708 364.335 152.588 359.215C147.468 354.095 144.176 349.158 141.616 342.392C139.605 337.273 137.228 329.41 136.496 315.147C135.948 299.787 135.765 295.033 135.765 256.084C135.765 217.136 135.948 212.382 136.496 196.839C137.228 182.576 139.605 174.713 141.616 169.593C144.176 162.645 147.468 157.891 152.588 152.771C157.708 147.651 162.462 144.359 169.411 141.799C174.531 139.788 182.211 137.411 196.473 136.679C212.016 136.131 216.588 135.948 255.719 135.948L256.286 136.332ZM256.283 181.168C214.775 181.168 181.166 214.813 181.166 256.285C181.166 297.794 214.812 331.403 256.283 331.403C297.792 331.403 331.401 297.757 331.401 256.285C331.401 214.777 297.755 181.168 256.283 181.168ZM256.285 305.053C229.35 305.053 207.517 283.22 207.517 256.285C207.517 229.351 229.35 207.518 256.285 207.518C283.22 207.518 305.053 229.351 305.053 256.285C305.053 283.22 283.22 305.053 256.285 305.053ZM351.92 178.206C351.92 187.897 344.057 195.76 334.366 195.76C324.674 195.76 316.811 187.897 316.811 178.206C316.811 168.514 324.674 160.652 334.366 160.652C344.057 160.652 351.92 168.514 351.92 178.206Z" fill="white"/>
<defs>
<radialGradient id="paint0_radial" cx="0" cy="0" r="1" gradientUnits="userSpaceOnUse" gradientTransform="translate(105 625) rotate(-54.1255) scale(771.316 527.986)">
<stop offset="0.169407" stop-color="#FDB420"/>
<stop offset="0.358" stop-color="#F4640B"/>
<stop offset="0.516" stop-color="#E80436"/>
<stop offset="0.689" stop-color="#DB359E"/>
<stop offset="0.724" stop-color="#CE37A4"/>
<stop offset="0.789" stop-color="#B134BA"/>
<stop offset="0.877" stop-color="#7544CF"/>
<stop offset="0.98" stop-color="#2B4FF2"/>
</radialGradient>
</defs>
</svg>
